<?xml version="1.0" standalone="no"?><!DOCTYPE svg PUBLIC "-//W3C//DTD SVG 1.1//EN" "http://www.w3.org/Graphics/SVG/1.1/DTD/svg11.dtd"><svg t="1511527791350" class="icon" style="" viewBox="0 0 7589 1024" version="1.1" xmlns="http://www.w3.org/2000/svg" p-id="2205" xmlns:xlink="http://www.w3.org/1999/xlink" width="237.15625" height="32"><defs><style type="text/css"></style></defs><path d="M2162.447059 481.882353H2288.941176l-72.282352 367.435294h-126.494118L2162.447059 481.882353z m-42.164706-72.282353V301.176471h487.905882l-48.188235 114.447058h-126.494118v409.6l-96.37647 108.42353h-90.352941v-108.42353h60.235294V415.623529h-186.729412z m319.247059 78.305882h120.470588l42.164706 361.411765h-126.494118l-36.141176-361.411765zM1746.823529 60.235294h349.364706v301.176471l-54.211764 66.258823 54.211764 54.211765v246.964706L1981.741176 843.294118h-108.423529v42.164706l-126.494118 60.235294V60.235294z m126.494118 674.635294h96.376471V487.905882h-96.376471v246.964706z m0-566.211764v204.8h96.376471V168.658824h-96.376471z m680.658824 0h-433.694118V60.235294h481.882353l-48.188235 108.42353z m644.517647 138.541176v463.811765l84.329411 48.188235h313.22353l-48.188235 96.376471H3252.705882l-60.235294-30.117647v18.070588l-132.517647 42.164706V415.623529h-36.141176V307.2h174.682353z m18.070588-186.729412h54.211765l6.023529-48.188235h120.470588V120.470588h198.776471l-48.188235 96.376471h-168.658824l-36.141176 186.729412h30.117647V277.082353h126.494117v126.494118h90.352941l-42.164705 102.4h-48.188236v72.282353h96.376471l-48.188235 108.423529h-48.188236v72.282353l-126.494117 42.164706v-120.470588h-138.541177V578.258824H3373.176471V505.976471h-156.611765V397.552941l36.141176-180.705882h-42.164706V120.470588zM2710.588235 536.094118h66.258824V433.694118h-60.235294V325.270588H3011.764706l-48.188235 102.4h-48.188236v108.42353h108.42353l-48.188236 102.4h-60.235294v186.729411h84.329412l-48.188235 102.4h-174.682353v-289.129411H2710.588235V536.094118zM2776.847059 60.235294h138.541176l-18.070588 66.258824h138.541177l-42.164706 102.4h-108.42353l-18.070588 66.258823h-150.588235l60.235294-234.917647z m349.364706 0c12.047059 0 24.094118 6.023529 36.141176 12.047059 12.047059 6.023529 24.094118 18.070588 30.117647 30.117647 6.023529 12.047059 12.047059 24.094118 12.047059 42.164706 0 12.047059-6.023529 30.117647-12.047059 42.164706-6.023529 12.047059-18.070588 24.094118-30.117647 30.117647-12.047059 6.023529-24.094118 12.047059-42.164706 12.047059-12.047059 0-30.117647-6.023529-42.164706-12.047059-12.047059-6.023529-24.094118-18.070588-30.117647-30.117647-6.023529-12.047059-12.047059-24.094118-12.047058-42.164706 0-12.047059 6.023529-30.117647 12.047058-42.164706 6.023529-12.047059 18.070588-24.094118 30.117647-30.117647 24.094118-6.023529 36.141176-12.047059 48.188236-12.047059z m596.329411 596.329412V542.117647h102.4V277.082353h-78.305882V162.635294h78.305882V54.211765H3975.529412v114.447059h343.341176V54.211765h156.611765v114.447059h108.423529l-42.164706 108.423529h-66.258823V542.117647h114.447059l-42.164706 114.447059H3722.541176zM4318.870588 542.117647V277.082353H3975.529412V542.117647h343.341176z m-331.294117 144.564706l-120.470589 240.941176h-156.611764l120.470588-240.941176h156.611765z m307.2 0H4457.411765l120.470588 234.917647h-156.611765l-126.494117-234.917647zM5180.235294 240.941176v578.258824l-108.423529 102.4h-361.411765V240.941176h132.517647V162.635294h-132.517647V66.258824h481.882353l-48.188235 96.37647h-96.376471V240.941176H5180.235294z m-361.411765 518.02353v60.235294h259.011765V560.188235l-30.117647 66.258824h-84.329412V337.317647h-30.117647v252.988235l-90.352941 36.141177V337.317647H4818.823529v331.294118h240.941177l-42.164706 90.352941H4818.823529zM4933.270588 240.941176h30.117647V162.635294h-30.117647V240.941176z m138.541177 96.376471h-24.094118V542.117647h24.094118V337.317647z m138.541176 54.211765h222.870588V162.635294h-216.847058V60.235294h349.364705v325.270588l-108.423529 114.447059h-114.447059v319.247059h234.917647l-48.188235 102.4h-319.247059V391.529412zM6384.941176 228.894118h144.564706l-132.517647 373.458823h-150.588235l138.541176-373.458823z m-180.705882 439.717647h373.458824l-54.211765 114.447059H6204.235294v66.258823l-156.611765 78.305882V783.058824h-349.364705v-114.447059h349.364705V174.682353h-343.341176V66.258824H6565.647059l-54.211765 114.447058H6204.235294v487.905883z m-355.388235-439.717647l132.517647 373.458823h-150.588235l-132.517647-373.458823h150.588235z m1529.97647 108.423529l-36.141176 72.282353H6686.117647V301.176471l168.658824-252.988236h186.729411L6890.917647 301.176471h475.858824l-30.117647-150.588236h150.588235l48.188235 265.035294h-150.588235l-6.02353-78.305882zM6686.117647 463.811765h837.270588v331.294117l-156.611764 126.494118h-686.682353V463.811765z m680.658824 114.447059h-524.047059v222.870588h524.047059V578.258824zM144.564706 0L0 566.211765l96.376471 132.517647h524.047058l-6.023529 48.188235 156.611765-126.494118L674.635294 481.882353l-12.047059 54.211765H174.682353l102.4-373.458824 638.494118-6.023529L789.082353 0z" fill="#333333" p-id="2206"></path><path d="M319.247059 355.388235l90.352941 138.541177 6.023529-48.188236 487.905883-6.023529-96.376471 379.482353H168.658824l120.470588 156.611765h644.517647L1084.235294 397.552941l-96.37647-120.470588H463.811765l6.023529-48.188235z" fill="#39B0FA" p-id="2207"></path></svg>