<?xml version="1.0" standalone="no"?><!DOCTYPE svg PUBLIC "-//W3C//DTD SVG 1.1//EN" "http://www.w3.org/Graphics/SVG/1.1/DTD/svg11.dtd"><svg t="1511592751695" class="icon" style="" viewBox="0 0 6144 1024" version="1.1" xmlns="http://www.w3.org/2000/svg" p-id="1417" xmlns:xlink="http://www.w3.org/1999/xlink" width="192" height="32"><defs><style type="text/css"></style></defs><path d="M440 531.008h135.488l-75.968 392-135.04 0.512 75.52-392.512z m-43.52-76.992V335.488h516.48l-53.44 118.528h-136.512v435.456l-103.04 114.56H524.48v-114.56h66.048l-0.512-435.456H396.48z m342.528 79.488h131.008l44.48 385.472-132.992 1.024-42.496-386.56zM0 82.944h368.512l0.96 322.56-58.944 71.04 58.944 56.96v264.96l-120 117.504-115.968 0.512v43.008L0 1021.504V83.008z m133.504 716.032l102.528-0.448V533.504l-102.528 0.512v264.96z m0-599.488v216h102.528V199.488H133.44z m723.968-0.512H398.976V83.008h512.512l-54.016 115.968z m684.16 144v495.04l89.984 54.016 333.44-0.512-50.432 104.96h-310.528l-69.504-39.04v18.56l-140.992 45.44V460.544h-36.032V343.04h184z m20.48-199.488l59.52 0.512 8.448-49.984h130.56l-8.512 49.472h210.944l-50.496 105.536H1733.12l-38.528 197.952h35.52v-136.96h133.504v136.96h96l-44.544 108.544h-52.48v75.968l104-0.512-51.968 116.032h-51.008v73.984l-133.504 51.008v-124.992h-148.48V630.976h148.48l-0.512-75.52h-165.504V442.56l40-193.472h-41.984V143.488z m-536.512 446.016h72.96V475.968h-64.448V364.544h313.472l-49.984 111.488h-54.016v113.536h116.48l-50.496 107.52h-65.92v199.488h86.4l-48.96 108.48h-182.464v-304.96h-73.024V589.44z m68.992-504.96h148.032l-21.504 72.448h147.968l-46.464 105.984h-118.016l-21.504 68.032-161.536-0.512 73.024-246.016z m373.504-1.536c14.016 0.32 27.648 3.968 40.96 11.008 13.376 7.04 23.872 17.28 31.552 30.72 7.68 13.504 11.52 27.776 11.52 42.752-0.384 15.36-4.224 29.504-11.52 42.496a78.912 78.912 0 0 1-30.528 30.528 84.096 84.096 0 0 1-41.984 11.008 80.96 80.96 0 0 1-73.472-41.536 86.528 86.528 0 0 1-11.264-42.24 82.56 82.56 0 0 1 11.264-42.752 77.44 77.44 0 0 1 31.744-31.232c13.44-7.168 27.392-10.752 41.728-10.752z m630.592 631.04V593.92h109.824v-280.96h-85.76V193.472h85.76V73.472h162.176v120h317.824V73.472h160v120l115.52 1.024-45.504 118.016-70.016 0.512v280.96l124.032 0.512-47.04 120-826.816-0.512z m589.824-120.064v-280.96h-317.824v280.96h317.824z m-309.312 152l-126.976 253.504-167.552-0.512 127.04-252.992h167.488z m309.312 4.032h167.04l127.424 252.48-168 0.512-126.464-252.992z m961.28-478.528v615.488l-112.96 111.552H3150.72V271.488h139.008V193.472h-139.008V89.472h509.504l-49.984 104h-102.528v78.08h142.08z m-385.984 556.032v64h272.512V612.032l-35.008 68.48h-88V377.984h-28.992v268.992l-94.528 41.536V377.984h-25.984v352.512h259.008l-44.992 97.024h-214.016z m120.512-556.032h28.992V193.472h-28.992v78.08z m152 106.496h-28.544v216.96h28.544v-216.96z m141.44 57.536l235.008 0.96 1.024-240h-232.96V84.48h372.48v348.032l-116.48 120.512-118.528-0.512-0.512 339.008 252.48-1.024-53.952 110.528h-340.032l1.536-565.504z m1250.112-174.08h156.544L4942.912 594.56h-159.04l144-332.992z m-192.96 405.12h396.992l-55.488 119.424h-342.016v129.984l-166.016 89.024v-219.008h-371.456v-119.488h371.456V206.08h-362.496V86.528h913.536l-55.552 119.488h-328.96v460.48z m-376.96-405.12l144 333.056h-159.04l-140.992-332.992h155.968z m891.52 192v-118.4L5430.528 64h196.48l-158.016 267.008 440.512 1.024-30.976-159.04h162.944l50.56 280.512H5249.472z m0 58.048h827.008v349.504l-163.456 132.992-663.552 0.512V511.488zM5909.504 631.04H5416.96v239.552h492.992l-0.512-239.552z" fill="#333333" p-id="1418"></path></svg>